<?xml version="1.0" encoding="UTF-8"?>
<!DOCTYPE svg PUBLIC "-//W3C//DTD SVG 1.1//EN" "http://www.w3.org/Graphics/SVG/1.1/DTD/svg11.dtd">
<!-- Creator: CorelDRAW 2020 (64 Bit) -->
<svg xmlns="http://www.w3.org/2000/svg" xml:space="preserve" width="52.9166mm" height="52.9166mm" version="1.1" style="shape-rendering:geometricPrecision; text-rendering:geometricPrecision; image-rendering:optimizeQuality; fill-rule:evenodd; clip-rule:evenodd"
viewBox="0 0 5291.66 5291.66"
 xmlns:xlink="http://www.w3.org/1999/xlink"
 xmlns:xodm="http://www.corel.com/coreldraw/odm/2003">
 <defs>
  <style type="text/css">
   <![CDATA[
    .fil0 {fill:#FF4747}
   ]]>
  </style>
 </defs>
 <g id="Camada_x0020_1">
  <metadata id="CorelCorpID_0Corel-Layer"/>
  <g id="_3104660829872">
   <path class="fil0" d="M3206.13 3783.49l-1131.5 0c-89.39,0 -111.67,-71.44 -116.64,-147.8l-47.64 -481.21c-19.43,-151.68 -28.67,-345.85 -48.34,-486.67l-70.26 -729.17 1709.56 0c-6.44,77.35 -19.39,159.16 -24.81,239.61 -5.42,80.35 -19.04,163.45 -24.6,245.98 -9.45,140.1 -40.44,347.03 -48.98,486.03 -8.55,139.11 -39.38,343.48 -48.98,486.02 -5.43,80.51 -17.9,162.5 -24.28,240.15 -3.74,45.48 -4.84,80.05 -27.33,107.97 -19.75,24.5 -53.97,39.09 -96.2,39.09zm-940.87 -2275.32l756.39 0 0 209.09 -756.39 0 0 -209.09zm-221.38 -98.39l0 307.48 -633.4 0c-167.52,0 -155.82,221.38 -18.45,221.38l178.34 0c0,102.96 47.04,463.67 55.56,590.14 6.33,93.94 22.19,196.46 30,289.77 8.26,98.77 17.76,203.57 29.53,296.4 12.69,100.12 16.85,191.47 27.32,292.44 9.9,95.4 21.39,196.64 30.26,295.67 16.06,179.22 159.68,301.81 350.04,301.81l1113.05 0c190.77,0 317.03,-124.64 339.38,-306.33l88.47 -876.99c14.1,-100.93 16.12,-195.59 28.97,-296.96 21.42,-168.99 30.32,-337.97 51.84,-507.76 2.9,-22.93 7.51,-60.73 7.9,-78.19 95.34,0 205.88,16.87 250.61,-32.27 44.82,-49.25 40.74,-113.36 -5.83,-157.17 -21.63,-20.34 -50.71,-31.94 -91.04,-31.94l-633.4 0 0 -325.93c0,-56.2 -48.34,-104.54 -104.54,-104.54l-990.07 0c-33.44,0 -58.6,16.54 -75.59,35.1 -18.35,20.03 -28.95,51.47 -28.95,87.89z"/>
   <path class="fil0" d="M2265.26 3568.25c60.37,0 107.32,-48.55 110.87,-104.85l-55.06 -596.66c-5.29,-68.08 -11.35,-134.29 -17.93,-197.29 -11.25,-107.62 -22.52,-308.05 -35.06,-395.41 -9.43,-65.7 -36.3,-120.17 -113.51,-120.17 -59.77,0 -107.24,49.37 -110.08,105.21l73.14 798.81c2.88,67.12 15.62,137.05 18.45,202.93 2.72,63.3 11.91,134.98 18.33,196.91 6.53,63.11 43.7,110.52 110.85,110.52z"/>
   <path class="fil0" d="M2535.84 2258.41l0 1205.3c0,131.46 221.38,154.96 221.38,-24.6l0 -1156.1c0,-179.54 -221.38,-156.08 -221.38,-24.6z"/>
   <path class="fil0" d="M2917.11 3457.56c0,140.1 189.99,145.65 214.7,24.07 13.44,-66.16 23.82,-268.24 32.26,-349.01l41.6 -438.06c8.98,-115.6 37.36,-363.47 37.36,-448.45 0,-29.63 -42.75,-92.24 -110.69,-92.24 -122.19,0 -118.49,148.29 -122.95,252.17l-92.28 1051.52z"/>
  </g>
 </g>
</svg>
