<?xml version="1.0" encoding="UTF-8"?>
<!DOCTYPE svg PUBLIC "-//W3C//DTD SVG 1.1//EN" "http://www.w3.org/Graphics/SVG/1.1/DTD/svg11.dtd">
<!-- Creator: CorelDRAW 2020 (64 Bit) -->
<svg xmlns="http://www.w3.org/2000/svg" xml:space="preserve" width="52.9166mm" height="52.9166mm" version="1.1" style="shape-rendering:geometricPrecision; text-rendering:geometricPrecision; image-rendering:optimizeQuality; fill-rule:evenodd; clip-rule:evenodd"
viewBox="0 0 5291.66 5291.66"
 xmlns:xlink="http://www.w3.org/1999/xlink"
 xmlns:xodm="http://www.corel.com/coreldraw/odm/2003">
 <defs>
  <style type="text/css">
   <![CDATA[
    .str0 {stroke:#7FFF7F;stroke-width:185.21;stroke-miterlimit:22.9256}
    .fil1 {fill:none}
    .fil0 {fill:#7FFF7F}
   ]]>
  </style>
 </defs>
 <g id="Camada_x0020_1">
  <metadata id="CorelCorpID_0Corel-Layer"/>
  <path class="fil0" d="M2168.55 3133.67l46.49 -175.98c9.41,-32.98 45.22,-153.54 45.74,-176.7 15.03,10.07 248.32,235.38 255.01,260.44 -25.12,2.09 -61.82,15.11 -86.84,21.67l-169.28 47.75c-26.56,7.22 -66.07,20.73 -91.12,22.82zm1855.58 -1491.25l0 45.97c-4.37,61.16 -26.05,121.81 -63.5,171.85 -41.61,55.59 -1112.23,1117.12 -1226.46,1231.38 -20.32,20.33 -33.32,39.41 -63.07,50.86l-258.4 72.57c-41.95,11.75 -315.63,92.24 -352.66,92.24 -35.48,0 -65.11,-29.64 -65.11,-65.11 0,-32.93 13.68,-68.05 20.58,-93.36l121.14 -437.7c28.88,-98.21 10.74,-79.88 76.66,-145.8 108.87,-108.85 1184.53,-1195.56 1234.54,-1228.72 12.32,-8.18 22.87,-16.42 36.4,-23.29 12.41,-6.3 24.89,-11.6 37.52,-16.73 83.17,-33.81 200.25,-21.33 273.49,25.9 44.69,28.82 158.03,142.34 186.6,187.77 25.04,39.8 38.89,85.39 42.27,132.17zm-1371.35 1329.82l-320.12 -322.81 1003.75 -1006.48 325.54 322.85 -1009.17 1006.44zm784.05 -1432.41c67.01,-45.3 160.01,-230.57 358.06,-32.51 57.64,57.62 88.17,88.33 88.17,177.69 0,38.78 -26.87,83.51 -47.35,104.56 -20.5,21.06 -55.93,60.09 -77.44,74.49l-321.44 -324.23z"/>
  <path class="fil1 str0" d="M3770.31 2915.85l0 748.63c0,116.41 -95.25,211.66 -211.66,211.66l-1931.47 0c-116.42,0 -211.66,-95.24 -211.66,-211.66l0 -1799.18c0,-116.42 95.24,-211.66 211.66,-211.66l861.82 0"/>
 </g>
</svg>
